<?xml version="1.0" encoding="UTF-8" standalone="no"?><!DOCTYPE svg PUBLIC "-//W3C//DTD SVG 1.1//EN" "http://www.w3.org/Graphics/SVG/1.1/DTD/svg11.dtd"><svg width="100%" height="100%" viewBox="0 0 15 15" version="1.1" xmlns="http://www.w3.org/2000/svg" xmlns:xlink="http://www.w3.org/1999/xlink" xml:space="preserve" xmlns:serif="http://www.serif.com/" style="fill-rule:evenodd;clip-rule:evenodd;stroke-linejoin:round;stroke-miterlimit:1.41421;"><rect id="settings" x="0" y="0" width="15" height="15" style="fill:none;"/><clipPath id="_clip1"><rect x="0" y="0" width="15" height="15"/></clipPath><g clip-path="url(#_clip1)"><path d="M8.685,0.094c-0.785,-0.125 -1.585,-0.125 -2.37,0l-0.518,2.03c-0.783,0.247 -1.502,0.663 -2.109,1.217l-2.016,-0.566c-0.501,0.617 -0.901,1.31 -1.185,2.052l1.499,1.463c-0.177,0.802 -0.177,1.633 0,2.435l-1.499,1.464c0.284,0.742 0.684,1.435 1.185,2.052l2.016,-0.567c0.607,0.555 1.326,0.97 2.109,1.218l0.518,2.03c0.785,0.125 1.585,0.125 2.37,0l0.518,-2.03c0.783,-0.248 1.502,-0.663 2.109,-1.218l2.016,0.567c0.501,-0.617 0.901,-1.31 1.185,-2.052l-1.499,-1.464c0.177,-0.802 0.177,-1.633 0,-2.435l1.499,-1.463c-0.284,-0.742 -0.684,-1.435 -1.185,-2.052l-2.016,0.566c-0.607,-0.554 -1.326,-0.97 -2.109,-1.217l-0.518,-2.03Zm-1.185,5.342c1.143,0 2.072,0.928 2.072,2.072c0,1.143 -0.929,2.072 -2.072,2.072c-1.143,0 -2.072,-0.929 -2.072,-2.072c0,-1.144 0.929,-2.072 2.072,-2.072Z" style="fill:#bebebd;"/></g></svg>